<svg width="64" height="64" viewBox="0 0 64 64" fill="none" xmlns="http://www.w3.org/2000/svg">
  <rect width="64" height="64" rx="20" fill="#0F172A"/>
  <rect x="8" y="8" width="48" height="48" rx="16" fill="url(#g)"/>
  <path d="M39.925 22.15C37.475 19.9 34.15 18.75 30.225 18.75C24.175 18.75 19.875 21.575 19.875 26.55C19.875 30.025 22.15 32.15 26.325 33.1L31.025 34.175C33.525 34.75 34.65 35.65 34.65 37.15C34.65 39.375 32.475 40.65 29.175 40.65C25.925 40.65 22.6 39.475 19.7 37.275L17.15 41.125C20.275 43.7 24.55 45.1 29.05 45.1C35.975 45.1 40.55 41.95 40.55 36.6C40.55 32.8 38.15 30.65 33.4 29.55L28.675 28.45C26.425 27.95 25.55 27.175 25.55 25.85C25.55 23.75 27.55 22.55 30.5 22.55C33.175 22.55 35.575 23.45 37.95 25.3L39.925 22.15Z" fill="#0F172A"/>
  <defs>
    <linearGradient id="g" x1="8" y1="8" x2="56" y2="56" gradientUnits="userSpaceOnUse">
      <stop stop-color="#FCD34D"/>
      <stop offset="0.5" stop-color="#FB923C"/>
      <stop offset="1" stop-color="#F59E0B"/>
    </linearGradient>
  </defs>
</svg>
